<svg xmlns="http://www.w3.org/2000/svg">
<symbol id="filmreel" viewBox="0 0 512.000000 512.000000"
 preserveAspectRatio="xMidYMid meet">
<g transform="translate(0.000000,512.000000) scale(0.100000,-0.100000)"
fill="#000000" stroke="none">
<path d="M0 4100 l0 -630 255 0 255 0 0 -910 0 -910 -255 0 -255 0 0 -630 0
-630 2560 0 2560 0 0 630 0 630 -255 0 -255 0 0 910 0 910 255 0 255 0 0 630
0 630 -2560 0 -2560 0 0 -630z m970 0 l0 -280 -285 0 -285 0 0 280 0 280 285
0 285 0 0 -280z m1250 0 l0 -280 -285 0 -285 0 0 280 0 280 285 0 285 0 0
-280z m1250 0 l0 -280 -285 0 -285 0 0 280 0 280 285 0 285 0 0 -280z m1250 0
l0 -280 -285 0 -285 0 0 280 0 280 285 0 285 0 0 -280z m-2041 -1056 c388
-235 716 -436 729 -447 12 -11 22 -28 22 -37 0 -9 -10 -26 -22 -37 -13 -11
-341 -212 -729 -447 -459 -277 -716 -426 -733 -426 -19 0 -29 7 -36 26 -13 34
-13 1734 0 1768 7 19 17 26 36 26 17 0 275 -150 733 -426z m-1709 -2024 l0
-280 -285 0 -285 0 0 280 0 280 285 0 285 0 0 -280z m1250 0 l0 -280 -285 0
-285 0 0 280 0 280 285 0 285 0 0 -280z m1250 0 l0 -280 -285 0 -285 0 0 280
0 280 285 0 285 0 0 -280z m1250 0 l0 -280 -285 0 -285 0 0 280 0 280 285 0
285 0 0 -280z"/>
</g>
</symbol>
</svg>